<svg xmlns="http://www.w3.org/2000/svg" width="1120" height="460" viewBox="0 0 1120 460" role="img" aria-labelledby="title desc"><title id="title">PRESET &amp; AGENT SCOPE</title><desc id="desc">Global providers are shared; preset contributions remain agent-scoped</desc><defs><filter id="shadow" x="-20%" y="-20%" width="140%" height="140%"><feDropShadow dx="0" dy="6" stdDeviation="12" flood-color="#0f172a" flood-opacity=".07"/></filter><marker id="arrow" markerWidth="10" markerHeight="10" refX="8" refY="3" orient="auto"><path d="M0,0 L0,6 L8,3 z" fill="#64748b"/></marker><style>.t{font-family:Inter,Arial,sans-serif}.h{font-family:Georgia,serif}</style></defs><rect width="1120" height="460" rx="24" fill="#f8fafc"/><text x="52" y="54" class="t" font-size="13" font-weight="700" letter-spacing="1.8" fill="#64748b">PRESET &amp; AGENT SCOPE</text><text x="52" y="92" class="h" font-size="29" font-weight="700" fill="#0f172a">Global providers are shared; preset contributions remain agent-scoped</text><g filter="url(#shadow)"><rect x="420" y="125" width="280" height="76" rx="16" fill="#111827"/><text x="560" y="159" text-anchor="middle" class="t" font-size="16" font-weight="700" fill="#f8fafc">Global Profile</text><text x="560" y="183" text-anchor="middle" class="t" font-size="12.5" fill="#cbd5e1">providers · host · base services</text></g><g filter="url(#shadow)"><rect x="135" y="245" width="240" height="82" rx="16" fill="#fff" stroke="#cbd5e1"/><text x="255" y="279" text-anchor="middle" class="t" font-size="16" font-weight="700">Agent A Scope</text><text x="255" y="303" text-anchor="middle" class="t" font-size="12.5" fill="#64748b">Preset: analyst</text></g><g filter="url(#shadow)"><rect x="745" y="245" width="240" height="82" rx="16" fill="#fff" stroke="#cbd5e1"/><text x="865" y="279" text-anchor="middle" class="t" font-size="16" font-weight="700">Agent B Scope</text><text x="865" y="303" text-anchor="middle" class="t" font-size="12.5" fill="#64748b">Preset: coder</text></g><g stroke="#64748b" stroke-width="2" marker-end="url(#arrow)"><line x1="490" y1="201" x2="285" y2="233"/><line x1="630" y1="201" x2="865" y2="233"/></g><g filter="url(#shadow)"><rect x="95" y="360" width="320" height="62" rx="16" fill="#fff" stroke="#cbd5e1"/><text x="255" y="394" text-anchor="middle" class="t" font-size="16" font-weight="700">Tools · Skills · Prompt · Persona A</text></g><g filter="url(#shadow)"><rect x="705" y="360" width="320" height="62" rx="16" fill="#fff" stroke="#cbd5e1"/><text x="865" y="394" text-anchor="middle" class="t" font-size="16" font-weight="700">Tools · Skills · Prompt · Persona B</text></g><line x1="255" y1="327" x2="255" y2="348" stroke="#64748b" stroke-width="2" marker-end="url(#arrow)"/><line x1="865" y1="327" x2="865" y2="348" stroke="#64748b" stroke-width="2" marker-end="url(#arrow)"/></svg>