<svg xmlns="http://www.w3.org/2000/svg" width="1120" height="460" viewBox="0 0 1120 460" role="img" aria-labelledby="title desc"><title id="title">WEB CLIENT DATA FLOW</title><desc id="desc">Host owns truth; typed client layers project it into composable React UI</desc><defs><filter id="shadow" x="-20%" y="-20%" width="140%" height="140%"><feDropShadow dx="0" dy="6" stdDeviation="12" flood-color="#0f172a" flood-opacity=".07"/></filter><marker id="arrow" markerWidth="10" markerHeight="10" refX="8" refY="3" orient="auto"><path d="M0,0 L0,6 L8,3 z" fill="#64748b"/></marker><style>.t{font-family:Inter,Arial,sans-serif}.h{font-family:Georgia,serif}</style></defs><rect width="1120" height="460" rx="24" fill="#f8fafc"/><text x="52" y="54" class="t" font-size="13" font-weight="700" letter-spacing="1.8" fill="#64748b">WEB CLIENT DATA FLOW</text><text x="52" y="92" class="h" font-size="29" font-weight="700" fill="#0f172a">Host owns truth; typed client layers project it into composable React UI</text><g filter="url(#shadow)"><rect x="40" y="165" width="150" height="82" rx="16" fill="#111827"/><text x="115" y="199" text-anchor="middle" class="t" font-size="16" font-weight="700" fill="#f8fafc">Host State</text><text x="115" y="223" text-anchor="middle" class="t" font-size="12.5" fill="#cbd5e1">controllers</text></g><g filter="url(#shadow)"><rect x="220" y="165" width="150" height="82" rx="16" fill="#fff" stroke="#cbd5e1"/><text x="295" y="199" text-anchor="middle" class="t" font-size="16" font-weight="700">Remote</text><text x="295" y="223" text-anchor="middle" class="t" font-size="12.5" fill="#64748b">API Gateway</text></g><g filter="url(#shadow)"><rect x="400" y="165" width="150" height="82" rx="16" fill="#fff" stroke="#cbd5e1"/><text x="475" y="199" text-anchor="middle" class="t" font-size="16" font-weight="700">Client Model</text><text x="475" y="223" text-anchor="middle" class="t" font-size="12.5" fill="#64748b">stable projection</text></g><g filter="url(#shadow)"><rect x="580" y="165" width="150" height="82" rx="16" fill="#fff" stroke="#cbd5e1"/><text x="655" y="199" text-anchor="middle" class="t" font-size="16" font-weight="700">UI Adapter</text><text x="655" y="223" text-anchor="middle" class="t" font-size="12.5" fill="#64748b">scope hooks</text></g><g filter="url(#shadow)"><rect x="760" y="165" width="150" height="82" rx="16" fill="#fff" stroke="#cbd5e1"/><text x="835" y="199" text-anchor="middle" class="t" font-size="16" font-weight="700">Conversation</text><text x="835" y="223" text-anchor="middle" class="t" font-size="12.5" fill="#64748b">presentation</text></g><g filter="url(#shadow)"><rect x="940" y="165" width="150" height="82" rx="16" fill="#111827"/><text x="1015" y="199" text-anchor="middle" class="t" font-size="16" font-weight="700" fill="#f8fafc">Slots / React</text><text x="1015" y="223" text-anchor="middle" class="t" font-size="12.5" fill="#cbd5e1">composition</text></g><g stroke="#64748b" stroke-width="2" marker-end="url(#arrow)"><line x1="190" y1="206" x2="210" y2="206"/><line x1="370" y1="206" x2="390" y2="206"/><line x1="550" y1="206" x2="570" y2="206"/><line x1="730" y1="206" x2="750" y2="206"/><line x1="910" y1="206" x2="930" y2="206"/></g><path d="M1015 280 C1015 365 115 365 115 280" fill="none" stroke="#94a3b8" stroke-width="2" stroke-dasharray="6 5" marker-end="url(#arrow)"/><text x="565" y="360" text-anchor="middle" class="t" font-size="12.5" fill="#64748b">callbacks / commands → authoritative host mutation → stream / event back to client</text></svg>